<svg xmlns="http://www.w3.org/2000/svg">
<g id="darkLightNavSvg">
<path d="M12.5 25C5.59625 25 0 19.4037 0 12.5C0 5.59625 5.59625 0 12.5 0C19.4037 0 25 5.59625 25 12.5C25 19.4037 19.4037 25 12.5 25ZM4.16125 18.0312C4.98286 19.2605 6.06683 20.2923 7.33513 21.0523C8.60342 21.8123 10.0245 22.2816 11.4959 22.4264C12.9674 22.5712 14.4526 22.3879 15.8448 21.8897C17.2369 21.3915 18.5012 20.5908 19.5466 19.5452C20.5921 18.4997 21.3927 17.2353 21.8908 15.8432C22.3888 14.451 22.572 12.9657 22.4271 11.4943C22.2822 10.0228 21.8127 8.60183 21.0526 7.3336C20.2925 6.06538 19.2606 4.98149 18.0312 4.16C18.5702 6.08278 18.5875 8.1144 18.0814 10.0461C17.5752 11.9778 16.5639 13.7398 15.1513 15.1513C13.74 16.5637 11.9781 17.5749 10.0467 18.081C8.11522 18.5872 6.08385 18.57 4.16125 18.0312Z" fill="#2B2B2B"/>
</g>
<g id="homeNavSvg">
<path d="M14.9999 13.9999C14.9999 14.1989 14.9209 14.3896 14.7803 14.5303C14.6396 14.6709 14.4489 14.7499 14.2499 14.7499H3.74994C3.55103 14.7499 3.36026 14.6709 3.21961 14.5303C3.07896 14.3896 2.99994 14.1989 2.99994 13.9999V7.24994H0.749939L8.49519 0.20894C8.63327 0.0832983 8.81325 0.0136719 8.99994 0.0136719C9.18663 0.0136719 9.36661 0.0832983 9.50469 0.20894L17.2499 7.24994H14.9999V13.9999Z"/>
</g>
<g id="serviceNavSvg">
<g clip-path="url(#clip0_1_258)">
<path d="M16.5 4.28699V4.5H11V0H11.2603C11.5338 0 11.7962 0.0889101 11.9896 0.247113L16.198 3.69035C16.3913 3.8486 16.5 4.06321 16.5 4.28699ZM10.6562 5.625C10.0891 5.625 9.625 5.24531 9.625 4.78125V0H1.03125C0.461699 0 0 0.377754 0 0.84375V17.1562C0 17.6222 0.461699 18 1.03125 18H15.4688C16.0383 18 16.5 17.6222 16.5 17.1562V5.625H10.6562ZM5.29401 14.0803C5.27317 14.0984 5.24815 14.1131 5.22039 14.1234C5.19263 14.1337 5.16266 14.1394 5.13221 14.1402C5.10175 14.141 5.0714 14.1368 5.04289 14.1281C5.01437 14.1193 4.98826 14.106 4.96603 14.0889L2.17882 11.951C2.15567 11.9332 2.13722 11.9118 2.1246 11.888C2.11199 11.8641 2.10548 11.8384 2.10548 11.8125C2.10548 11.7865 2.11199 11.7608 2.1246 11.737C2.13722 11.7132 2.15567 11.6917 2.17882 11.674L4.96603 9.53606C4.98826 9.51901 5.01437 9.50571 5.04289 9.49691C5.0714 9.48812 5.10175 9.484 5.13221 9.48481C5.16266 9.48561 5.19263 9.49131 5.22039 9.50159C5.24815 9.51187 5.27317 9.52652 5.29401 9.54471L6.13529 10.2789C6.15655 10.2975 6.17304 10.3194 6.18377 10.3432C6.19451 10.3671 6.19927 10.3925 6.19778 10.4179C6.19629 10.4433 6.18858 10.4682 6.1751 10.4911C6.16161 10.514 6.14264 10.5345 6.11931 10.5513L4.36777 11.8125L6.11931 13.0737C6.14264 13.0905 6.16161 13.111 6.1751 13.1339C6.18858 13.1568 6.19629 13.1817 6.19778 13.2071C6.19927 13.2325 6.19451 13.2579 6.18377 13.2818C6.17304 13.3056 6.15655 13.3275 6.13529 13.3461L5.29401 14.0803ZM7.49809 15.8549L6.31847 15.5747C6.25937 15.5607 6.20951 15.528 6.17985 15.4839C6.15019 15.4398 6.14316 15.3878 6.1603 15.3394L8.8003 7.89947C8.81747 7.85112 8.85741 7.81032 8.91133 7.78606C8.96525 7.76179 9.02874 7.75603 9.08785 7.77006L10.2674 8.05025C10.2967 8.05721 10.324 8.06881 10.3478 8.08439C10.3716 8.09998 10.3914 8.11924 10.406 8.14109C10.4207 8.16294 10.43 8.18694 10.4334 8.21172C10.4367 8.2365 10.434 8.26158 10.4256 8.28552L7.78555 15.7255C7.77707 15.7494 7.76291 15.7718 7.74387 15.7913C7.72483 15.8107 7.70129 15.8269 7.6746 15.8389C7.6479 15.851 7.61857 15.8586 7.58829 15.8613C7.558 15.864 7.52735 15.8619 7.49809 15.8549ZM14.4071 11.951L11.6199 14.0889C11.5977 14.106 11.5716 14.1193 11.5431 14.1281C11.5145 14.1368 11.4842 14.141 11.4537 14.1402C11.4233 14.1394 11.3933 14.1337 11.3655 14.1234C11.3378 14.1131 11.3128 14.0984 11.2919 14.0803L10.4506 13.346C10.4293 13.3275 10.4129 13.3056 10.4021 13.2817C10.3914 13.2579 10.3866 13.2325 10.3881 13.2071C10.3896 13.1817 10.3973 13.1568 10.4108 13.1338C10.4243 13.1109 10.4433 13.0905 10.4666 13.0737L12.2182 11.8125L10.4666 10.5513C10.4433 10.5345 10.4243 10.514 10.4108 10.4911C10.3974 10.4682 10.3896 10.4433 10.3882 10.4179C10.3867 10.3925 10.3914 10.3671 10.4022 10.3432C10.4129 10.3194 10.4294 10.2975 10.4506 10.2789L11.292 9.54471C11.3128 9.52652 11.3378 9.51187 11.3656 9.50159C11.3934 9.49131 11.4233 9.48561 11.4538 9.48481C11.4842 9.484 11.5146 9.48812 11.5431 9.49691C11.5716 9.50571 11.5977 9.51901 11.62 9.53606L14.4072 11.674C14.4303 11.6917 14.4488 11.7132 14.4614 11.737C14.474 11.7608 14.4805 11.7865 14.4805 11.8125C14.4805 11.8385 14.474 11.8641 14.4613 11.888C14.4487 11.9118 14.4303 11.9332 14.4071 11.951Z" />
</g>
<defs>
<clipPath id="clip0_1_258">
<rect width="16.5" height="18" fill="white"/>
</clipPath>
</defs>
</g>
<g id="cvNavSvg" width="18" height="18" viewBox="0 0 18 18">
<g clip-path="url(#clip0_1_262)">
<path d="M11.7636 11.272L8.25 14.6259L4.73638 11.272C2.10301 11.381 0 13.4376 0 15.9759V16.3134C0 17.245 0.791853 18.0009 1.76786 18.0009H14.7321C15.7081 18.0009 16.5 17.245 16.5 16.3134V15.9759C16.5 13.4376 14.397 11.381 11.7636 11.272ZM0.500893 2.80635L0.736607 2.85909V4.91221C0.478795 5.05987 0.294643 5.31651 0.294643 5.62589C0.294643 5.9212 0.464063 6.16729 0.70346 6.31846L0.128906 8.5087C0.0662946 8.75128 0.20625 9.00089 0.408817 9.00089H1.94833C2.15089 9.00089 2.29085 8.75128 2.22824 8.5087L1.65368 6.31846C1.89308 6.16729 2.0625 5.9212 2.0625 5.62589C2.0625 5.31651 1.87835 5.05987 1.62054 4.91221V3.06299L4.05134 3.62198C3.7346 4.22667 3.53571 4.90167 3.53571 5.62589C3.53571 8.11143 5.64609 10.1259 8.25 10.1259C10.8539 10.1259 12.9643 8.11143 12.9643 5.62589C12.9643 4.90167 12.7691 4.22667 12.4487 3.62198L15.9954 2.80635C16.6657 2.65166 16.6657 1.85362 15.9954 1.69893L8.98292 0.0817384C8.50413 -0.0272461 7.99955 -0.0272461 7.52076 0.0817384L0.500893 1.69541C-0.165737 1.8501 -0.165737 2.65166 0.500893 2.80635Z" />
</g>
<defs>
<clipPath id="clip0_1_262">
<rect width="18" height="18" fill="white"/>
</clipPath>
</defs>
</g>
<g id="portfolioNavSvg">
<path d="M5.75 9.75V12H10.25V9.75H15.5V15C15.5 15.1989 15.421 15.3897 15.2803 15.5303C15.1397 15.671 14.9489 15.75 14.75 15.75H1.25C1.05109 15.75 0.860322 15.671 0.71967 15.5303C0.579018 15.3897 0.5 15.1989 0.5 15V9.75H5.75ZM7.25 8.25H8.75V10.5H7.25V8.25ZM4.25 3.75V1.5C4.25 1.30109 4.32902 1.11032 4.46967 0.96967C4.61032 0.829018 4.80109 0.75 5 0.75H11C11.1989 0.75 11.3897 0.829018 11.5303 0.96967C11.671 1.11032 11.75 1.30109 11.75 1.5V3.75H14.75C14.9489 3.75 15.1397 3.82902 15.2803 3.96967C15.421 4.11032 15.5 4.30109 15.5 4.5V8.25H10.25V6.75H5.75V8.25H0.5V4.5C0.5 4.30109 0.579018 4.11032 0.71967 3.96967C0.860322 3.82902 1.05109 3.75 1.25 3.75H4.25ZM5.75 2.25V3.75H10.25V2.25H5.75Z" />
</g>
<g id="iconDribbbleNavSvg">
<path d="M13.75 0.5C2.5 0.5 1 11 0.25 15.5H1.7485C2.248 13.0002 3.49825 11.6255 5.5 11.375C8.5 11 10.75 8.375 11.5 6.125L10.375 5.375L11.125 4.625C11.875 3.875 12.628 2.75 13.75 0.5Z"/>
</g>
<g id="messageNavSvg">
<path d="M3.84125 12.25L0.5 14.875V1C0.5 0.801088 0.579018 0.610322 0.71967 0.46967C0.860322 0.329018 1.05109 0.25 1.25 0.25H14.75C14.9489 0.25 15.1397 0.329018 15.2803 0.46967C15.421 0.610322 15.5 0.801088 15.5 1V11.5C15.5 11.6989 15.421 11.8897 15.2803 12.0303C15.1397 12.171 14.9489 12.25 14.75 12.25H3.84125Z"/>
</g>
<g id='FbLogoSvg'>
<path d="M4.16671 6.87484H5.62504L6.20837 4.5415H4.16671V3.37484C4.16671 2.774 4.16671 2.20817 5.33337 2.20817H6.20837V0.248171C6.01821 0.223087 5.30012 0.166504 4.54179 0.166504C2.95804 0.166504 1.83337 1.13309 1.83337 2.90817V4.5415H0.083374V6.87484H1.83337V11.8332H4.16671V6.87484Z" fill="#2B2B2B"/>
</g>
<g id="InstaLogoSvg">
<path d="M5.99996 0.166504C7.58488 0.166504 7.78263 0.172337 8.40446 0.201504C9.02571 0.230671 9.44863 0.328087 9.82079 0.472754C10.2058 0.620921 10.5301 0.821587 10.8545 1.14534C11.1511 1.43694 11.3806 1.78968 11.527 2.179C11.6711 2.55059 11.7691 2.97409 11.7983 3.59534C11.8257 4.21717 11.8333 4.41492 11.8333 5.99984C11.8333 7.58475 11.8275 7.7825 11.7983 8.40434C11.7691 9.02559 11.6711 9.4485 11.527 9.82067C11.381 10.2102 11.1514 10.563 10.8545 10.8543C10.5628 11.1509 10.2101 11.3804 9.82079 11.5269C9.44921 11.671 9.02571 11.769 8.40446 11.7982C7.78263 11.8256 7.58488 11.8332 5.99996 11.8332C4.41504 11.8332 4.21729 11.8273 3.59546 11.7982C2.97421 11.769 2.55129 11.671 2.17913 11.5269C1.78965 11.3808 1.43685 11.1512 1.14546 10.8543C0.84878 10.5628 0.619253 10.21 0.472876 9.82067C0.328209 9.44909 0.230793 9.02559 0.201626 8.40434C0.174209 7.7825 0.166626 7.58475 0.166626 5.99984C0.166626 4.41492 0.172459 4.21717 0.201626 3.59534C0.230793 2.9735 0.328209 2.55117 0.472876 2.179C0.618847 1.78944 0.848428 1.43661 1.14546 1.14534C1.43693 0.848555 1.78971 0.619013 2.17913 0.472754C2.55129 0.328087 2.97363 0.230671 3.59546 0.201504C4.21729 0.174087 4.41504 0.166504 5.99996 0.166504ZM5.99996 3.08317C5.22641 3.08317 4.48455 3.39046 3.93756 3.93744C3.39058 4.48442 3.08329 5.22629 3.08329 5.99984C3.08329 6.77339 3.39058 7.51525 3.93756 8.06223C4.48455 8.60921 5.22641 8.9165 5.99996 8.9165C6.77351 8.9165 7.51537 8.60921 8.06235 8.06223C8.60934 7.51525 8.91663 6.77339 8.91663 5.99984C8.91663 5.22629 8.60934 4.48442 8.06235 3.93744C7.51537 3.39046 6.77351 3.08317 5.99996 3.08317ZM9.79163 2.93734C9.79163 2.74395 9.7148 2.55848 9.57806 2.42174C9.44131 2.28499 9.25585 2.20817 9.06246 2.20817C8.86907 2.20817 8.68361 2.28499 8.54686 2.42174C8.41012 2.55848 8.33329 2.74395 8.33329 2.93734C8.33329 3.13072 8.41012 3.31619 8.54686 3.45294C8.68361 3.58968 8.86907 3.6665 9.06246 3.6665C9.25585 3.6665 9.44131 3.58968 9.57806 3.45294C9.7148 3.31619 9.79163 3.13072 9.79163 2.93734ZM5.99996 4.24984C6.46409 4.24984 6.90921 4.43421 7.2374 4.7624C7.56559 5.09059 7.74996 5.53571 7.74996 5.99984C7.74996 6.46397 7.56559 6.90909 7.2374 7.23727C6.90921 7.56546 6.46409 7.74984 5.99996 7.74984C5.53583 7.74984 5.09071 7.56546 4.76252 7.23727C4.43433 6.90909 4.24996 6.46397 4.24996 5.99984C4.24996 5.53571 4.43433 5.09059 4.76252 4.7624C5.09071 4.43421 5.53583 4.24984 5.99996 4.24984Z" fill="#2B2B2B"/>
</g>
<g id="TwLogoSvg">
<path d="M11.9278 1.29953C11.4825 1.49652 11.0102 1.62589 10.5266 1.68337C11.0363 1.37854 11.4178 0.898793 11.6 0.333535C11.1216 0.618201 10.5972 0.817701 10.0506 0.925618C9.68349 0.532789 9.19685 0.272263 8.66636 0.184542C8.13587 0.0968217 7.59127 0.186821 7.11721 0.440549C6.64315 0.694277 6.2662 1.09752 6.04495 1.58758C5.82371 2.07764 5.77057 2.62707 5.8938 3.15045C4.92378 3.10183 3.97483 2.84976 3.10855 2.41059C2.24228 1.97142 1.47804 1.35498 0.86547 0.601285C0.648639 0.973714 0.534694 1.39708 0.535303 1.82803C0.535303 2.67387 0.965803 3.42112 1.6203 3.85862C1.23298 3.84642 0.854172 3.74182 0.51547 3.55354V3.58387C0.515587 4.14719 0.710518 4.69314 1.06721 5.12915C1.42391 5.56516 1.92042 5.8644 2.47255 5.97612C2.113 6.07356 1.73598 6.08792 1.37005 6.01812C1.52573 6.503 1.82914 6.92707 2.23782 7.23093C2.64649 7.5348 3.13996 7.70325 3.64914 7.7127C3.14308 8.11014 2.56366 8.40394 1.94398 8.5773C1.32431 8.75066 0.676544 8.80018 0.0377197 8.72303C1.15288 9.4402 2.45103 9.82094 3.77689 9.8197C8.26447 9.8197 10.7186 6.10212 10.7186 2.87804C10.7186 2.77304 10.7156 2.66687 10.711 2.56303C11.1886 2.2178 11.6009 1.79013 11.9284 1.30012L11.9278 1.29953Z" fill="#2B2B2B"/>
</g>
<g id="LdLogoSvg">
<path d="M3.0483 1.91676C3.04814 2.22618 2.92508 2.52287 2.70618 2.74155C2.48728 2.96023 2.19047 3.083 1.88105 3.08285C1.57163 3.08269 1.27495 2.95963 1.05626 2.74072C0.837579 2.52182 0.714811 2.22501 0.714966 1.9156C0.715121 1.60618 0.838185 1.30949 1.05709 1.09081C1.27599 0.872125 1.5728 0.749357 1.88222 0.749512C2.19164 0.749667 2.48832 0.872731 2.707 1.09163C2.92569 1.31053 3.04845 1.60734 3.0483 1.91676ZM3.0833 3.94676H0.749966V11.2501H3.0833V3.94676ZM6.76997 3.94676H4.4483V11.2501H6.74663V7.4176C6.74663 5.2826 9.52913 5.08426 9.52913 7.4176V11.2501H11.8333V6.62426C11.8333 3.0251 7.71497 3.15926 6.74663 4.92676L6.76997 3.94676Z" fill="#2B2B2B"/>
</g>
<g id="YtLogoSvg">
<path d="M11.5667 1.79066C11.8333 2.83016 11.8333 5.00016 11.8333 5.00016C11.8333 5.00016 11.8333 7.17016 11.5667 8.20966C11.4185 8.78425 10.9851 9.23633 10.4362 9.38916C9.43929 9.66683 5.99996 9.66683 5.99996 9.66683C5.99996 9.66683 2.56238 9.66683 1.56371 9.38916C1.01246 9.234 0.579626 8.7825 0.433209 8.20966C0.166626 7.17016 0.166626 5.00016 0.166626 5.00016C0.166626 5.00016 0.166626 2.83016 0.433209 1.79066C0.581376 1.21608 1.01479 0.763996 1.56371 0.611163C2.56238 0.333496 5.99996 0.333496 5.99996 0.333496C5.99996 0.333496 9.43929 0.333496 10.4362 0.611163C10.9875 0.766329 11.4203 1.21783 11.5667 1.79066ZM4.83329 7.04183L8.33329 5.00016L4.83329 2.9585V7.04183Z" fill="#2B2B2B"/>
</g>
<g id="DrLogoSvg">
<path d="M10.6602 5.75017C10.6124 4.83195 10.293 3.94861 9.74263 3.21209C9.57492 3.3927 9.39566 3.56223 9.20596 3.71959C8.62317 4.20366 7.97191 4.59878 7.27338 4.89209C7.37079 5.09625 7.46004 5.294 7.53879 5.48067V5.48242C7.56101 5.53458 7.58241 5.58709 7.60296 5.63992C8.48613 5.54075 9.41713 5.57692 10.3195 5.69884C10.4397 5.71517 10.5529 5.73267 10.6602 5.75017ZM5.18563 1.40434C5.75411 2.20535 6.27833 3.03688 6.75596 3.89517C7.46938 3.614 8.05913 3.25934 8.53396 2.86442C8.69878 2.72858 8.85394 2.58142 8.99829 2.424C8.15886 1.71801 7.09681 1.33161 5.99996 1.33317C5.72698 1.33298 5.4545 1.3566 5.18563 1.40375V1.40434ZM1.48088 4.83142C1.87826 4.82139 2.27517 4.79746 2.67088 4.75967C3.62733 4.67412 4.57562 4.5138 5.50704 4.28017C5.02026 3.43446 4.4947 2.61167 3.93204 1.81442C3.33105 2.11215 2.80111 2.53566 2.37819 3.05621C1.95526 3.57677 1.64924 4.18219 1.48088 4.83142ZM2.37338 8.93692C2.59971 8.60617 2.89721 8.234 3.29213 7.82917C4.14029 6.96 5.14129 6.28334 6.29979 5.91L6.33596 5.8995C6.23971 5.68717 6.14929 5.49759 6.05829 5.31909C4.98729 5.63117 3.85913 5.826 2.73504 5.92692C2.18671 5.9765 1.69496 5.99809 1.33329 6.00159C1.33226 7.0706 1.6998 8.10729 2.37396 8.93692H2.37338ZM7.75288 10.3253C7.52792 9.19082 7.20951 8.07694 6.80088 6.995C5.63304 7.41909 4.70263 8.03917 3.98338 8.77884C3.69311 9.07189 3.43552 9.3956 3.21513 9.74426C4.01943 10.3444 4.99644 10.6679 5.99996 10.6665C6.60074 10.6674 7.196 10.5519 7.75288 10.3264V10.3253ZM8.84546 9.69817C9.7562 8.99803 10.3766 7.9865 10.5879 6.85734C10.3895 6.80775 10.1381 6.75817 9.86163 6.71967C9.24687 6.63115 8.62308 6.62467 8.00663 6.70042C8.35374 7.67974 8.634 8.68148 8.84546 9.69875V9.69817ZM5.99996 11.8332C2.77821 11.8332 0.166626 9.22159 0.166626 5.99984C0.166626 2.77809 2.77821 0.166504 5.99996 0.166504C9.22171 0.166504 11.8333 2.77809 11.8333 5.99984C11.8333 9.22159 9.22171 11.8332 5.99996 11.8332Z" fill="#2B2B2B"/>
</g>
<g id="ExtraSkillsSvg">
<rect x="0.5" y="0.5" width="9" height="9" stroke="#FFB400" fill='none'/>
<rect x="5.5" y="5.5" width="9" height="9" stroke="#FFB400" fill='none'/>
</g>
<g id='BtnCvLoadSvg'>
<path d="M1.33329 10.9523H10.6666V6.28564H11.8333V11.619C11.8333 11.7958 11.7718 11.9654 11.6624 12.0904C11.553 12.2154 11.4047 12.2856 11.25 12.2856H0.749959C0.59525 12.2856 0.446877 12.2154 0.33748 12.0904C0.228084 11.9654 0.166626 11.7958 0.166626 11.619V6.28564H1.33329V10.9523ZM7.16663 4.28564H10.0833L5.99996 8.95231L1.91663 4.28564H4.83329V0.285645H7.16663V4.28564Z"/>
</g>
<g id='HireSvg'>
<path d="M8.78129 5.33312L5.20529 1.75712L6.14796 0.814453L11.3333 5.99979L6.14796 11.1851L5.20529 10.2425L8.78129 6.66645H0.666626V5.33312H8.78129Z" fill="#2B2B2B"/>
</g>
</svg>
