<svg xmlns="http://www.w3.org/2000/svg">
<g id="darkLightNavSvg">
<path d="M12.5 25C5.59625 25 0 19.4037 0 12.5C0 5.59625 5.59625 0 12.5 0C19.4037 0 25 5.59625 25 12.5C25 19.4037 19.4037 25 12.5 25ZM4.16125 18.0312C4.98286 19.2605 6.06683 20.2923 7.33513 21.0523C8.60342 21.8123 10.0245 22.2816 11.4959 22.4264C12.9674 22.5712 14.4526 22.3879 15.8448 21.8897C17.2369 21.3915 18.5012 20.5908 19.5466 19.5452C20.5921 18.4997 21.3927 17.2353 21.8908 15.8432C22.3888 14.451 22.572 12.9657 22.4271 11.4943C22.2822 10.0228 21.8127 8.60183 21.0526 7.3336C20.2925 6.06538 19.2606 4.98149 18.0312 4.16C18.5702 6.08278 18.5875 8.1144 18.0814 10.0461C17.5752 11.9778 16.5639 13.7398 15.1513 15.1513C13.74 16.5637 11.9781 17.5749 10.0467 18.081C8.11522 18.5872 6.08385 18.57 4.16125 18.0312Z" fill="#2B2B2B"/>
</g>
<g id="homeNavSvg">
<path d="M14.9999 13.9999C14.9999 14.1989 14.9209 14.3896 14.7803 14.5303C14.6396 14.6709 14.4489 14.7499 14.2499 14.7499H3.74994C3.55103 14.7499 3.36026 14.6709 3.21961 14.5303C3.07896 14.3896 2.99994 14.1989 2.99994 13.9999V7.24994H0.749939L8.49519 0.20894C8.63327 0.0832983 8.81325 0.0136719 8.99994 0.0136719C9.18663 0.0136719 9.36661 0.0832983 9.50469 0.20894L17.2499 7.24994H14.9999V13.9999Z"/>
</g>
<g id="serviceNavSvg">
<g clip-path="url(#clip0_1_258)">
<path d="M16.5 4.28699V4.5H11V0H11.2603C11.5338 0 11.7962 0.0889101 11.9896 0.247113L16.198 3.69035C16.3913 3.8486 16.5 4.06321 16.5 4.28699ZM10.6562 5.625C10.0891 5.625 9.625 5.24531 9.625 4.78125V0H1.03125C0.461699 0 0 0.377754 0 0.84375V17.1562C0 17.6222 0.461699 18 1.03125 18H15.4688C16.0383 18 16.5 17.6222 16.5 17.1562V5.625H10.6562ZM5.29401 14.0803C5.27317 14.0984 5.24815 14.1131 5.22039 14.1234C5.19263 14.1337 5.16266 14.1394 5.13221 14.1402C5.10175 14.141 5.0714 14.1368 5.04289 14.1281C5.01437 14.1193 4.98826 14.106 4.96603 14.0889L2.17882 11.951C2.15567 11.9332 2.13722 11.9118 2.1246 11.888C2.11199 11.8641 2.10548 11.8384 2.10548 11.8125C2.10548 11.7865 2.11199 11.7608 2.1246 11.737C2.13722 11.7132 2.15567 11.6917 2.17882 11.674L4.96603 9.53606C4.98826 9.51901 5.01437 9.50571 5.04289 9.49691C5.0714 9.48812 5.10175 9.484 5.13221 9.48481C5.16266 9.48561 5.19263 9.49131 5.22039 9.50159C5.24815 9.51187 5.27317 9.52652 5.29401 9.54471L6.13529 10.2789C6.15655 10.2975 6.17304 10.3194 6.18377 10.3432C6.19451 10.3671 6.19927 10.3925 6.19778 10.4179C6.19629 10.4433 6.18858 10.4682 6.1751 10.4911C6.16161 10.514 6.14264 10.5345 6.11931 10.5513L4.36777 11.8125L6.11931 13.0737C6.14264 13.0905 6.16161 13.111 6.1751 13.1339C6.18858 13.1568 6.19629 13.1817 6.19778 13.2071C6.19927 13.2325 6.19451 13.2579 6.18377 13.2818C6.17304 13.3056 6.15655 13.3275 6.13529 13.3461L5.29401 14.0803ZM7.49809 15.8549L6.31847 15.5747C6.25937 15.5607 6.20951 15.528 6.17985 15.4839C6.15019 15.4398 6.14316 15.3878 6.1603 15.3394L8.8003 7.89947C8.81747 7.85112 8.85741 7.81032 8.91133 7.78606C8.96525 7.76179 9.02874 7.75603 9.08785 7.77006L10.2674 8.05025C10.2967 8.05721 10.324 8.06881 10.3478 8.08439C10.3716 8.09998 10.3914 8.11924 10.406 8.14109C10.4207 8.16294 10.43 8.18694 10.4334 8.21172C10.4367 8.2365 10.434 8.26158 10.4256 8.28552L7.78555 15.7255C7.77707 15.7494 7.76291 15.7718 7.74387 15.7913C7.72483 15.8107 7.70129 15.8269 7.6746 15.8389C7.6479 15.851 7.61857 15.8586 7.58829 15.8613C7.558 15.864 7.52735 15.8619 7.49809 15.8549ZM14.4071 11.951L11.6199 14.0889C11.5977 14.106 11.5716 14.1193 11.5431 14.1281C11.5145 14.1368 11.4842 14.141 11.4537 14.1402C11.4233 14.1394 11.3933 14.1337 11.3655 14.1234C11.3378 14.1131 11.3128 14.0984 11.2919 14.0803L10.4506 13.346C10.4293 13.3275 10.4129 13.3056 10.4021 13.2817C10.3914 13.2579 10.3866 13.2325 10.3881 13.2071C10.3896 13.1817 10.3973 13.1568 10.4108 13.1338C10.4243 13.1109 10.4433 13.0905 10.4666 13.0737L12.2182 11.8125L10.4666 10.5513C10.4433 10.5345 10.4243 10.514 10.4108 10.4911C10.3974 10.4682 10.3896 10.4433 10.3882 10.4179C10.3867 10.3925 10.3914 10.3671 10.4022 10.3432C10.4129 10.3194 10.4294 10.2975 10.4506 10.2789L11.292 9.54471C11.3128 9.52652 11.3378 9.51187 11.3656 9.50159C11.3934 9.49131 11.4233 9.48561 11.4538 9.48481C11.4842 9.484 11.5146 9.48812 11.5431 9.49691C11.5716 9.50571 11.5977 9.51901 11.62 9.53606L14.4072 11.674C14.4303 11.6917 14.4488 11.7132 14.4614 11.737C14.474 11.7608 14.4805 11.7865 14.4805 11.8125C14.4805 11.8385 14.474 11.8641 14.4613 11.888C14.4487 11.9118 14.4303 11.9332 14.4071 11.951Z" />
</g>
<defs>
<clipPath id="clip0_1_258">
<rect width="16.5" height="18" fill="white"/>
</clipPath>
</defs>
</g>
<g id="cvNavSvg" width="18" height="18" viewBox="0 0 18 18">
<g clip-path="url(#clip0_1_262)">
<path d="M11.7636 11.272L8.25 14.6259L4.73638 11.272C2.10301 11.381 0 13.4376 0 15.9759V16.3134C0 17.245 0.791853 18.0009 1.76786 18.0009H14.7321C15.7081 18.0009 16.5 17.245 16.5 16.3134V15.9759C16.5 13.4376 14.397 11.381 11.7636 11.272ZM0.500893 2.80635L0.736607 2.85909V4.91221C0.478795 5.05987 0.294643 5.31651 0.294643 5.62589C0.294643 5.9212 0.464063 6.16729 0.70346 6.31846L0.128906 8.5087C0.0662946 8.75128 0.20625 9.00089 0.408817 9.00089H1.94833C2.15089 9.00089 2.29085 8.75128 2.22824 8.5087L1.65368 6.31846C1.89308 6.16729 2.0625 5.9212 2.0625 5.62589C2.0625 5.31651 1.87835 5.05987 1.62054 4.91221V3.06299L4.05134 3.62198C3.7346 4.22667 3.53571 4.90167 3.53571 5.62589C3.53571 8.11143 5.64609 10.1259 8.25 10.1259C10.8539 10.1259 12.9643 8.11143 12.9643 5.62589C12.9643 4.90167 12.7691 4.22667 12.4487 3.62198L15.9954 2.80635C16.6657 2.65166 16.6657 1.85362 15.9954 1.69893L8.98292 0.0817384C8.50413 -0.0272461 7.99955 -0.0272461 7.52076 0.0817384L0.500893 1.69541C-0.165737 1.8501 -0.165737 2.65166 0.500893 2.80635Z" />
</g>
<defs>
<clipPath id="clip0_1_262">
<rect width="18" height="18" fill="white"/>
</clipPath>
</defs>
</g>
<g id="portfolioNavSvg">
<path d="M5.75 9.75V12H10.25V9.75H15.5V15C15.5 15.1989 15.421 15.3897 15.2803 15.5303C15.1397 15.671 14.9489 15.75 14.75 15.75H1.25C1.05109 15.75 0.860322 15.671 0.71967 15.5303C0.579018 15.3897 0.5 15.1989 0.5 15V9.75H5.75ZM7.25 8.25H8.75V10.5H7.25V8.25ZM4.25 3.75V1.5C4.25 1.30109 4.32902 1.11032 4.46967 0.96967C4.61032 0.829018 4.80109 0.75 5 0.75H11C11.1989 0.75 11.3897 0.829018 11.5303 0.96967C11.671 1.11032 11.75 1.30109 11.75 1.5V3.75H14.75C14.9489 3.75 15.1397 3.82902 15.2803 3.96967C15.421 4.11032 15.5 4.30109 15.5 4.5V8.25H10.25V6.75H5.75V8.25H0.5V4.5C0.5 4.30109 0.579018 4.11032 0.71967 3.96967C0.860322 3.82902 1.05109 3.75 1.25 3.75H4.25ZM5.75 2.25V3.75H10.25V2.25H5.75Z" />
</g>
<g id="iconDribbbleNavSvg">
<path d="M13.75 0.5C2.5 0.5 1 11 0.25 15.5H1.7485C2.248 13.0002 3.49825 11.6255 5.5 11.375C8.5 11 10.75 8.375 11.5 6.125L10.375 5.375L11.125 4.625C11.875 3.875 12.628 2.75 13.75 0.5Z"/>
</g>
<g id="messageNavSvg">
<path d="M3.84125 12.25L0.5 14.875V1C0.5 0.801088 0.579018 0.610322 0.71967 0.46967C0.860322 0.329018 1.05109 0.25 1.25 0.25H14.75C14.9489 0.25 15.1397 0.329018 15.2803 0.46967C15.421 0.610322 15.5 0.801088 15.5 1V11.5C15.5 11.6989 15.421 11.8897 15.2803 12.0303C15.1397 12.171 14.9489 12.25 14.75 12.25H3.84125Z"/>
</g>
<g id='FbLogoSvg'>
<path d="M4.16671 6.87484H5.62504L6.20837 4.5415H4.16671V3.37484C4.16671 2.774 4.16671 2.20817 5.33337 2.20817H6.20837V0.248171C6.01821 0.223087 5.30012 0.166504 4.54179 0.166504C2.95804 0.166504 1.83337 1.13309 1.83337 2.90817V4.5415H0.083374V6.87484H1.83337V11.8332H4.16671V6.87484Z" fill="#2B2B2B"/>
</g>
<g id="InstaLogoSvg">
<path d="M5.99996 0.166504C7.58488 0.166504 7.78263 0.172337 8.40446 0.201504C9.02571 0.230671 9.44863 0.328087 9.82079 0.472754C10.2058 0.620921 10.5301 0.821587 10.8545 1.14534C11.1511 1.43694 11.3806 1.78968 11.527 2.179C11.6711 2.55059 11.7691 2.97409 11.7983 3.59534C11.8257 4.21717 11.8333 4.41492 11.8333 5.99984C11.8333 7.58475 11.8275 7.7825 11.7983 8.40434C11.7691 9.02559 11.6711 9.4485 11.527 9.82067C11.381 10.2102 11.1514 10.563 10.8545 10.8543C10.5628 11.1509 10.2101 11.3804 9.82079 11.5269C9.44921 11.671 9.02571 11.769 8.40446 11.7982C7.78263 11.8256 7.58488 11.8332 5.99996 11.8332C4.41504 11.8332 4.21729 11.8273 3.59546 11.7982C2.97421 11.769 2.55129 11.671 2.17913 11.5269C1.78965 11.3808 1.43685 11.1512 1.14546 10.8543C0.84878 10.5628 0.619253 10.21 0.472876 9.82067C0.328209 9.44909 0.230793 9.02559 0.201626 8.40434C0.174209 7.7825 0.166626 7.58475 0.166626 5.99984C0.166626 4.41492 0.172459 4.21717 0.201626 3.59534C0.230793 2.9735 0.328209 2.55117 0.472876 2.179C0.618847 1.78944 0.848428 1.43661 1.14546 1.14534C1.43693 0.848555 1.78971 0.619013 2.17913 0.472754C2.55129 0.328087 2.97363 0.230671 3.59546 0.201504C4.21729 0.174087 4.41504 0.166504 5.99996 0.166504ZM5.99996 3.08317C5.22641 3.08317 4.48455 3.39046 3.93756 3.93744C3.39058 4.48442 3.08329 5.22629 3.08329 5.99984C3.08329 6.77339 3.39058 7.51525 3.93756 8.06223C4.48455 8.60921 5.22641 8.9165 5.99996 8.9165C6.77351 8.9165 7.51537 8.60921 8.06235 8.06223C8.60934 7.51525 8.91663 6.77339 8.91663 5.99984C8.91663 5.22629 8.60934 4.48442 8.06235 3.93744C7.51537 3.39046 6.77351 3.08317 5.99996 3.08317ZM9.79163 2.93734C9.79163 2.74395 9.7148 2.55848 9.57806 2.42174C9.44131 2.28499 9.25585 2.20817 9.06246 2.20817C8.86907 2.20817 8.68361 2.28499 8.54686 2.42174C8.41012 2.55848 8.33329 2.74395 8.33329 2.93734C8.33329 3.13072 8.41012 3.31619 8.54686 3.45294C8.68361 3.58968 8.86907 3.6665 9.06246 3.6665C9.25585 3.6665 9.44131 3.58968 9.57806 3.45294C9.7148 3.31619 9.79163 3.13072 9.79163 2.93734ZM5.99996 4.24984C6.46409 4.24984 6.90921 4.43421 7.2374 4.7624C7.56559 5.09059 7.74996 5.53571 7.74996 5.99984C7.74996 6.46397 7.56559 6.90909 7.2374 7.23727C6.90921 7.56546 6.46409 7.74984 5.99996 7.74984C5.53583 7.74984 5.09071 7.56546 4.76252 7.23727C4.43433 6.90909 4.24996 6.46397 4.24996 5.99984C4.24996 5.53571 4.43433 5.09059 4.76252 4.7624C5.09071 4.43421 5.53583 4.24984 5.99996 4.24984Z" fill="#2B2B2B"/>
</g>
<g id="TwLogoSvg">
<path d="M11.9278 1.29953C11.4825 1.49652 11.0102 1.62589 10.5266 1.68337C11.0363 1.37854 11.4178 0.898793 11.6 0.333535C11.1216 0.618201 10.5972 0.817701 10.0506 0.925618C9.68349 0.532789 9.19685 0.272263 8.66636 0.184542C8.13587 0.0968217 7.59127 0.186821 7.11721 0.440549C6.64315 0.694277 6.2662 1.09752 6.04495 1.58758C5.82371 2.07764 5.77057 2.62707 5.8938 3.15045C4.92378 3.10183 3.97483 2.84976 3.10855 2.41059C2.24228 1.97142 1.47804 1.35498 0.86547 0.601285C0.648639 0.973714 0.534694 1.39708 0.535303 1.82803C0.535303 2.67387 0.965803 3.42112 1.6203 3.85862C1.23298 3.84642 0.854172 3.74182 0.51547 3.55354V3.58387C0.515587 4.14719 0.710518 4.69314 1.06721 5.12915C1.42391 5.56516 1.92042 5.8644 2.47255 5.97612C2.113 6.07356 1.73598 6.08792 1.37005 6.01812C1.52573 6.503 1.82914 6.92707 2.23782 7.23093C2.64649 7.5348 3.13996 7.70325 3.64914 7.7127C3.14308 8.11014 2.56366 8.40394 1.94398 8.5773C1.32431 8.75066 0.676544 8.80018 0.0377197 8.72303C1.15288 9.4402 2.45103 9.82094 3.77689 9.8197C8.26447 9.8197 10.7186 6.10212 10.7186 2.87804C10.7186 2.77304 10.7156 2.66687 10.711 2.56303C11.1886 2.2178 11.6009 1.79013 11.9284 1.30012L11.9278 1.29953Z" fill="#2B2B2B"/>
</g>
<g id="LdLogoSvg">
<path d="M3.0483 1.91676C3.04814 2.22618 2.92508 2.52287 2.70618 2.74155C2.48728 2.96023 2.19047 3.083 1.88105 3.08285C1.57163 3.08269 1.27495 2.95963 1.05626 2.74072C0.837579 2.52182 0.714811 2.22501 0.714966 1.9156C0.715121 1.60618 0.838185 1.30949 1.05709 1.09081C1.27599 0.872125 1.5728 0.749357 1.88222 0.749512C2.19164 0.749667 2.48832 0.872731 2.707 1.09163C2.92569 1.31053 3.04845 1.60734 3.0483 1.91676ZM3.0833 3.94676H0.749966V11.2501H3.0833V3.94676ZM6.76997 3.94676H4.4483V11.2501H6.74663V7.4176C6.74663 5.2826 9.52913 5.08426 9.52913 7.4176V11.2501H11.8333V6.62426C11.8333 3.0251 7.71497 3.15926 6.74663 4.92676L6.76997 3.94676Z" fill="#2B2B2B"/>
</g>
<g id="YtLogoSvg">
<path d="M11.5667 1.79066C11.8333 2.83016 11.8333 5.00016 11.8333 5.00016C11.8333 5.00016 11.8333 7.17016 11.5667 8.20966C11.4185 8.78425 10.9851 9.23633 10.4362 9.38916C9.43929 9.66683 5.99996 9.66683 5.99996 9.66683C5.99996 9.66683 2.56238 9.66683 1.56371 9.38916C1.01246 9.234 0.579626 8.7825 0.433209 8.20966C0.166626 7.17016 0.166626 5.00016 0.166626 5.00016C0.166626 5.00016 0.166626 2.83016 0.433209 1.79066C0.581376 1.21608 1.01479 0.763996 1.56371 0.611163C2.56238 0.333496 5.99996 0.333496 5.99996 0.333496C5.99996 0.333496 9.43929 0.333496 10.4362 0.611163C10.9875 0.766329 11.4203 1.21783 11.5667 1.79066ZM4.83329 7.04183L8.33329 5.00016L4.83329 2.9585V7.04183Z" fill="#2B2B2B"/>
</g>
<g id="DrLogoSvg">
<path d="M10.6602 5.75017C10.6124 4.83195 10.293 3.94861 9.74263 3.21209C9.57492 3.3927 9.39566 3.56223 9.20596 3.71959C8.62317 4.20366 7.97191 4.59878 7.27338 4.89209C7.37079 5.09625 7.46004 5.294 7.53879 5.48067V5.48242C7.56101 5.53458 7.58241 5.58709 7.60296 5.63992C8.48613 5.54075 9.41713 5.57692 10.3195 5.69884C10.4397 5.71517 10.5529 5.73267 10.6602 5.75017ZM5.18563 1.40434C5.75411 2.20535 6.27833 3.03688 6.75596 3.89517C7.46938 3.614 8.05913 3.25934 8.53396 2.86442C8.69878 2.72858 8.85394 2.58142 8.99829 2.424C8.15886 1.71801 7.09681 1.33161 5.99996 1.33317C5.72698 1.33298 5.4545 1.3566 5.18563 1.40375V1.40434ZM1.48088 4.83142C1.87826 4.82139 2.27517 4.79746 2.67088 4.75967C3.62733 4.67412 4.57562 4.5138 5.50704 4.28017C5.02026 3.43446 4.4947 2.61167 3.93204 1.81442C3.33105 2.11215 2.80111 2.53566 2.37819 3.05621C1.95526 3.57677 1.64924 4.18219 1.48088 4.83142ZM2.37338 8.93692C2.59971 8.60617 2.89721 8.234 3.29213 7.82917C4.14029 6.96 5.14129 6.28334 6.29979 5.91L6.33596 5.8995C6.23971 5.68717 6.14929 5.49759 6.05829 5.31909C4.98729 5.63117 3.85913 5.826 2.73504 5.92692C2.18671 5.9765 1.69496 5.99809 1.33329 6.00159C1.33226 7.0706 1.6998 8.10729 2.37396 8.93692H2.37338ZM7.75288 10.3253C7.52792 9.19082 7.20951 8.07694 6.80088 6.995C5.63304 7.41909 4.70263 8.03917 3.98338 8.77884C3.69311 9.07189 3.43552 9.3956 3.21513 9.74426C4.01943 10.3444 4.99644 10.6679 5.99996 10.6665C6.60074 10.6674 7.196 10.5519 7.75288 10.3264V10.3253ZM8.84546 9.69817C9.7562 8.99803 10.3766 7.9865 10.5879 6.85734C10.3895 6.80775 10.1381 6.75817 9.86163 6.71967C9.24687 6.63115 8.62308 6.62467 8.00663 6.70042C8.35374 7.67974 8.634 8.68148 8.84546 9.69875V9.69817ZM5.99996 11.8332C2.77821 11.8332 0.166626 9.22159 0.166626 5.99984C0.166626 2.77809 2.77821 0.166504 5.99996 0.166504C9.22171 0.166504 11.8333 2.77809 11.8333 5.99984C11.8333 9.22159 9.22171 11.8332 5.99996 11.8332Z" fill="#2B2B2B"/>
</g>
<g id="ExtraSkillsSvg">
<rect x="0.5" y="0.5" width="9" height="9" stroke="#FFB400" fill='none'/>
<rect x="5.5" y="5.5" width="9" height="9" stroke="#FFB400" fill='none'/>
</g>
<g id='BtnCvLoadSvg'>
<path d="M1.33329 10.9523H10.6666V6.28564H11.8333V11.619C11.8333 11.7958 11.7718 11.9654 11.6624 12.0904C11.553 12.2154 11.4047 12.2856 11.25 12.2856H0.749959C0.59525 12.2856 0.446877 12.2154 0.33748 12.0904C0.228084 11.9654 0.166626 11.7958 0.166626 11.619V6.28564H1.33329V10.9523ZM7.16663 4.28564H10.0833L5.99996 8.95231L1.91663 4.28564H4.83329V0.285645H7.16663V4.28564Z"/>
</g>
<g id='HireSvg'>
<path d="M8.78129 5.33312L5.20529 1.75712L6.14796 0.814453L11.3333 5.99979L6.14796 11.1851L5.20529 10.2425L8.78129 6.66645H0.666626V5.33312H8.78129Z" fill="#2B2B2B"/>
</g>
<g id="ServicePcSvg">
<path d="M62.2188 0.4375H3.78125C2.79531 0.43859 1.85007 0.830736 1.1529 1.5279C0.455736 2.22507 0.0635898 3.17031 0.0625 4.15625V41.3438C0.0635898 42.3297 0.455736 43.2749 1.1529 43.9721C1.85007 44.6693 2.79531 45.0614 3.78125 45.0625H25.0552L23.7802 48.25H18.125C17.8432 48.25 17.573 48.3619 17.3737 48.5612C17.1744 48.7605 17.0625 49.0307 17.0625 49.3125V51.4375H10.6875C10.4057 51.4375 10.1355 51.5494 9.9362 51.7487C9.73694 51.948 9.625 52.2182 9.625 52.5C9.625 52.7818 9.73694 53.052 9.9362 53.2513C10.1355 53.4506 10.4057 53.5625 10.6875 53.5625H55.3125C55.5943 53.5625 55.8645 53.4506 56.0638 53.2513C56.2631 53.052 56.375 52.7818 56.375 52.5C56.375 52.2182 56.2631 51.948 56.0638 51.7487C55.8645 51.5494 55.5943 51.4375 55.3125 51.4375H48.9375V49.3125C48.9375 49.0307 48.8256 48.7605 48.6263 48.5612C48.427 48.3619 48.1568 48.25 47.875 48.25H42.2198L40.9448 45.0625H62.2188C63.2047 45.0614 64.1499 44.6693 64.8471 43.9721C65.5443 43.2749 65.9364 42.3297 65.9375 41.3438V4.15625C65.9364 3.17031 65.5443 2.22507 64.8471 1.5279C64.1499 0.830736 63.2047 0.43859 62.2188 0.4375ZM46.8125 50.375V51.4375H19.1875V50.375H46.8125ZM26.0698 48.25L27.3448 45.0625H38.6552L39.9302 48.25H26.0698ZM63.8125 41.3438C63.8121 41.7663 63.6441 42.1715 63.3453 42.4703C63.0465 42.7691 62.6413 42.9371 62.2188 42.9375H3.78125C3.35867 42.9371 2.9535 42.7691 2.65469 42.4703C2.35588 42.1715 2.18785 41.7663 2.1875 41.3438V38.6875H63.8125V41.3438ZM63.8125 36.5625H2.1875V4.15625C2.18785 3.73367 2.35588 3.3285 2.65469 3.02969C2.9535 2.73088 3.35867 2.56285 3.78125 2.5625H62.2188C62.6413 2.56285 63.0465 2.73088 63.3453 3.02969C63.6441 3.3285 63.8121 3.73367 63.8125 4.15625V36.5625Z" fill="#FFB400"/>
<path d="M28.167 27.888C28.2836 27.9646 28.4142 28.0174 28.5513 28.0435C28.6884 28.0696 28.8293 28.0684 28.9659 28.04C29.1025 28.0117 29.2322 27.9567 29.3476 27.8782C29.4629 27.7997 29.5617 27.6992 29.6383 27.5826L38.0055 14.8326C38.1601 14.597 38.2148 14.3096 38.1576 14.0337C38.1003 13.7578 37.9358 13.5159 37.7003 13.3613C37.4647 13.2066 37.1773 13.1519 36.9014 13.2092C36.6255 13.2664 36.3836 13.4309 36.229 13.6665L27.8618 26.4165C27.7852 26.5331 27.7323 26.6637 27.7062 26.8008C27.68 26.9379 27.6812 27.0788 27.7095 27.2155C27.7379 27.3521 27.7928 27.4819 27.8713 27.5973C27.9498 27.7127 28.0503 27.8115 28.167 27.888Z" fill="#FFB400"/>
<path d="M39.7573 27.8165C39.9738 27.9969 40.2531 28.0839 40.5337 28.0583C40.8143 28.0328 41.0733 27.8968 41.2537 27.6804L46.5662 21.3054C46.7253 21.1144 46.8124 20.8738 46.8124 20.6252C46.8124 20.3767 46.7253 20.136 46.5662 19.9451L41.2537 13.5701C41.1647 13.462 41.0551 13.3726 40.9314 13.307C40.8077 13.2413 40.6723 13.2008 40.5328 13.1878C40.3934 13.1747 40.2528 13.1893 40.119 13.2307C39.9853 13.2722 39.861 13.3397 39.7534 13.4293C39.6459 13.519 39.5571 13.629 39.4921 13.7531C39.4272 13.8772 39.3875 14.0128 39.3752 14.1523C39.3629 14.2918 39.3783 14.4324 39.4205 14.5659C39.4627 14.6994 39.5309 14.8233 39.6212 14.9304L44.3668 20.6252L39.6212 26.3201C39.4408 26.5366 39.3538 26.8159 39.3793 27.0965C39.4049 27.3771 39.5408 27.6361 39.7573 27.8165Z" fill="#FFB400"/>
<path d="M24.7462 27.6804C24.8352 27.7884 24.9448 27.8779 25.0685 27.9435C25.1922 28.0091 25.3276 28.0496 25.4671 28.0627C25.6065 28.0758 25.7471 28.0612 25.8809 28.0197C26.0146 27.9782 26.1389 27.9107 26.2465 27.8211C26.354 27.7315 26.4428 27.6214 26.5078 27.4974C26.5727 27.3733 26.6124 27.2376 26.6247 27.0981C26.637 26.9586 26.6216 26.8181 26.5794 26.6845C26.5372 26.551 26.469 26.4272 26.3787 26.3201L21.6331 20.6252L26.3787 14.9304C26.469 14.8233 26.5372 14.6994 26.5794 14.5659C26.6216 14.4324 26.637 14.2918 26.6247 14.1523C26.6124 14.0128 26.5727 13.8772 26.5078 13.7531C26.4428 13.629 26.354 13.519 26.2465 13.4293C26.1389 13.3397 26.0146 13.2722 25.8809 13.2307C25.7471 13.1893 25.6065 13.1747 25.4671 13.1878C25.3276 13.2008 25.1922 13.2413 25.0685 13.307C24.9448 13.3726 24.8352 13.462 24.7462 13.5701L19.4337 19.9451C19.2746 20.136 19.1875 20.3767 19.1875 20.6252C19.1875 20.8737 19.2746 21.1144 19.4337 21.3054L24.7462 27.6804Z" fill="#FFB400"/>
</g>
<g id='ServicePaintingSvg'>
<path d="M31.6094 49.3384C31.0591 49.3384 30.6133 49.7844 30.6133 50.3345C30.6133 50.8846 31.0591 51.3306 31.6094 51.3306H36.3906C36.9409 51.3306 37.3867 50.8846 37.3867 50.3345C37.3867 49.7844 36.9409 49.3384 36.3906 49.3384H31.6094Z" fill="#FFB400"/>
<path d="M11.9531 33.8716H18.5374C18.9396 34.9183 19.9528 35.6646 21.1394 35.6646C22.3259 35.6646 23.3391 34.9183 23.7413 33.8716H25.0573C25.6076 33.8716 26.0534 33.4256 26.0534 32.8755C26.0534 32.3254 25.6076 31.8794 25.0573 31.8794H23.7413C23.3391 30.8327 22.3259 30.0864 21.1394 30.0864C19.9528 30.0864 18.9396 30.8327 18.5374 31.8794H11.9531C11.4029 31.8794 10.957 32.3254 10.957 32.8755C10.957 33.4256 11.4029 33.8716 11.9531 33.8716ZM21.1394 32.0786C21.5788 32.0786 21.9362 32.436 21.9362 32.8755C21.9362 33.315 21.5788 33.6724 21.1394 33.6724C20.6999 33.6724 20.3425 33.315 20.3425 32.8755C20.3425 32.436 20.6999 32.0786 21.1394 32.0786Z" fill="#FFB400"/>
<path d="M11.9531 28.1606H13.2249C13.6271 29.2073 14.6403 29.9536 15.8269 29.9536C17.0134 29.9536 18.0266 29.2073 18.4288 28.1606H25.0573C25.6076 28.1606 26.0534 27.7147 26.0534 27.1646C26.0534 26.6144 25.6076 26.1685 25.0573 26.1685H18.4288C18.0266 25.1218 17.0134 24.3755 15.8269 24.3755C14.6403 24.3755 13.6271 25.1218 13.2249 26.1685H11.9531C11.4029 26.1685 10.957 26.6144 10.957 27.1646C10.957 27.7147 11.4029 28.1606 11.9531 28.1606ZM15.8269 26.3677C16.2663 26.3677 16.6237 26.7251 16.6237 27.1646C16.6237 27.604 16.2663 27.9614 15.8269 27.9614C15.3874 27.9614 15.03 27.604 15.03 27.1646C15.03 26.7251 15.3874 26.3677 15.8269 26.3677Z" fill="#FFB400"/>
<path d="M25.2566 18.9966C25.8067 18.9966 26.2527 18.5506 26.2527 18.0005C26.2527 17.4504 25.8067 17.0044 25.2566 17.0044C24.7065 17.0044 24.2605 17.4504 24.2605 18.0005C24.2605 18.5506 24.7065 18.9966 25.2566 18.9966Z" fill="#FFB400"/>
<path d="M22.5117 18.9966C23.0618 18.9966 23.5078 18.5506 23.5078 18.0005C23.5078 17.4504 23.0618 17.0044 22.5117 17.0044C21.9616 17.0044 21.5156 17.4504 21.5156 18.0005C21.5156 18.5506 21.9616 18.9966 22.5117 18.9966Z" fill="#FFB400"/>
<path d="M19.7668 18.9966C20.317 18.9966 20.7629 18.5506 20.7629 18.0005C20.7629 17.4504 20.317 17.0044 19.7668 17.0044C19.2167 17.0044 18.7708 17.4504 18.7708 18.0005C18.7708 18.5506 19.2167 18.9966 19.7668 18.9966Z" fill="#FFB400"/>
<path d="M65.0117 6.7048H64.6386L64.9169 6.42655C65.7503 5.59316 65.7503 4.23701 64.9169 3.40361L62.7364 1.22309C61.903 0.389828 60.547 0.389828 59.7134 1.22309L54.2321 6.70466H2.98828C1.34061 6.70466 0 8.04514 0 9.69294V51.0593C0 53.0732 1.63838 54.7116 3.65234 54.7116H27.2458V61.758H22.4453C21.1638 61.758 20.1211 62.8007 20.1211 64.0822V65.0775C20.1211 66.359 21.1638 67.4017 22.4453 67.4017H45.5547C46.8362 67.4017 47.8789 66.359 47.8789 65.0775V64.0822C47.8789 62.8007 46.8362 61.758 45.5547 61.758H40.7542V54.7116H51.3984C51.9487 54.7116 52.3945 54.2656 52.3945 53.7155C52.3945 53.1654 51.9487 52.7194 51.3984 52.7194H3.65234C2.73687 52.7194 1.99219 51.9747 1.99219 51.0593V48.1108H66.0078V51.0593C66.0078 51.9747 65.2631 52.7194 64.3477 52.7194H56.0469C55.4966 52.7194 55.0508 53.1654 55.0508 53.7155C55.0508 54.2656 55.4966 54.7116 56.0469 54.7116H64.3477C66.3616 54.7116 68 53.0732 68 51.0593V9.69308C68 8.04541 66.6594 6.7048 65.0117 6.7048ZM45.5547 63.7503C45.7378 63.7503 45.8867 63.8993 45.8867 64.0823V65.0776C45.8867 65.2606 45.7378 65.4096 45.5547 65.4096H22.4453C22.2622 65.4096 22.1133 65.2606 22.1133 65.0776V64.0823C22.1133 63.8993 22.2622 63.7503 22.4453 63.7503H45.5547ZM29.238 54.7119H38.7621V61.7582H29.238V54.7119ZM61.1222 2.63197C61.179 2.57526 61.2712 2.57539 61.3278 2.63197L63.5081 4.81235C63.5649 4.86906 63.5649 4.96137 63.5081 5.01795L61.4276 7.09845L59.0417 4.71248L61.1222 2.63197ZM57.6329 6.12122L60.0188 8.50719L59.324 9.20194L56.9382 6.81596L57.6329 6.12122ZM55.5294 8.2247L57.9154 10.6107L46.1282 22.3979L43.7422 20.0119L55.5294 8.2247ZM54.0547 17.3315C55.4095 17.3315 56.5117 18.4337 56.5117 19.7886C56.5117 21.1434 55.4095 22.2456 54.0547 22.2456C52.6999 22.2456 51.5977 21.1434 51.5977 19.7886C51.5977 19.7727 51.5998 19.7575 51.6 19.7417L54.0082 17.3339C54.0237 17.3336 54.039 17.3315 54.0547 17.3315ZM44.3984 23.4857L41.4504 24.6897L42.6545 21.7417L44.3984 23.4857ZM66.0078 46.1189H1.99219V9.69308C1.99219 9.1439 2.43897 8.69698 2.98828 8.69698H52.2401L50.7212 10.2158H16.8672C16.3169 10.2158 15.8711 10.6618 15.8711 11.2119C15.8711 11.762 16.3169 12.208 16.8672 12.208H48.7292L41.7033 19.2343C41.5047 19.4346 41.3494 19.6684 41.2425 19.93L39.0175 25.3774C38.8134 25.8777 38.9284 26.4479 39.3105 26.8299C39.567 27.0863 39.908 27.2223 40.2559 27.2223C40.4264 27.2223 40.5984 27.1897 40.7629 27.1226L46.2103 24.8977C46.4645 24.7939 46.6918 24.6435 46.8884 24.4529L49.9186 21.4231C50.5714 23.0698 52.1784 24.2379 54.0548 24.2379C56.5081 24.2379 58.504 22.242 58.504 19.7887C58.504 17.9126 57.3362 16.3057 55.6897 15.6528L59.1348 12.2081H62.4968V42.608H61.9688L58.359 36.3556C58.0841 35.879 57.4745 35.7158 56.9983 35.991C56.5219 36.2661 56.3587 36.8753 56.6338 37.3517L59.6685 42.608H45.7538L44.2614 40.0231L51.2187 27.9726L54.3094 33.326C54.5846 33.8024 55.1938 33.9658 55.6701 33.6906C56.1465 33.4155 56.3097 32.8063 56.0347 32.3299L52.7373 26.6188C52.4203 26.0698 51.8527 25.742 51.2186 25.742C50.5846 25.742 50.0168 26.0698 49.6998 26.6188L43.1109 38.031L34.6569 23.3883C34.3399 22.8393 33.7722 22.5115 33.138 22.5115C32.5041 22.5115 31.9364 22.8393 31.6193 23.3883L29.3733 27.2785V16.6013C29.3733 15.3198 28.3306 14.2771 27.0491 14.2771H9.96094C8.67943 14.2771 7.63672 15.3198 7.63672 16.6013V38.3826C7.63672 39.298 8.3814 40.0427 9.29688 40.0427H22.0042L20.5231 42.6081H5.50335V12.208H12.2188C12.769 12.208 13.2148 11.762 13.2148 11.2119C13.2148 10.6618 12.769 10.2158 12.2188 10.2158H5.17132C4.25584 10.2158 3.51116 10.9605 3.51116 11.876V42.9399C3.51116 43.8554 4.25584 44.6001 5.17132 44.6001H62.8288C63.7443 44.6001 64.489 43.8554 64.489 42.9399V11.876C64.489 10.9605 63.7443 10.2158 62.8288 10.2158H61.1272L62.6463 8.69698H65.0117C65.561 8.69698 66.0078 9.1439 66.0078 9.69308V46.1189ZM27.3816 22.1178V38.0503H9.62891V22.1178H27.3816ZM9.62891 20.1256V16.6011C9.62891 16.418 9.77779 16.269 9.96094 16.269H27.0495C27.2327 16.269 27.3816 16.418 27.3816 16.6011V20.1256H9.62891ZM24.3047 40.0425H27.7136C28.6291 40.0425 29.3737 39.2978 29.3737 38.3823V36.2723C29.6229 36.3918 29.9003 36.4565 30.1909 36.4565C30.8709 36.4565 31.4797 36.1048 31.8196 35.5161L33.5148 32.58C33.5661 32.4913 33.6445 32.4725 33.7009 32.4725C33.7576 32.4725 33.836 32.4913 33.8871 32.58L34.9322 34.3901C35.2722 34.9791 35.8812 35.3307 36.5613 35.3307C37.2413 35.3307 37.8502 34.9791 38.1901 34.3902L38.4496 33.9408L43.4535 42.6077H22.8236L24.3047 40.0425ZM29.3737 32.9379V31.2626L33.1386 24.7419L37.2993 31.9486L36.5612 33.2271L35.6123 31.5838C35.2134 30.8927 34.4988 30.4802 33.7008 30.4802C32.9028 30.4802 32.1883 30.8927 31.7893 31.5838L30.1905 34.3529L29.3737 32.9379Z" fill="#FFB400"/>
</g>
<g id='ServiceMPhoneSvg'>
<g clip-path="url(#clip0_1_331)">
<path d="M37 0C29.0176 0 22.5217 6.7533 22.5217 15.0526V37C22.5217 45.3009 29.0176 52.0526 37 52.0526C44.9823 52.0526 51.4782 45.3009 51.4782 37V15.0526C51.4782 6.7533 44.9823 0 37 0ZM37 48.8352C31.3116 48.8352 26.6062 44.3743 25.8549 38.6087H48.1434C47.3938 44.3759 42.6883 48.8352 37 48.8352ZM48.2609 35.3913H25.7391V15.0526C25.7391 8.52609 30.7904 3.21739 37 3.21739C43.2095 3.21739 48.2609 8.52609 48.2609 15.0526V35.3913Z" fill="#FFB400"/>
<path d="M59.5217 28.9565C58.6337 28.9565 57.913 29.6772 57.913 30.5652V37C57.913 48.5312 48.5311 57.9131 37 57.9131C25.4689 57.9131 16.087 48.5312 16.087 37V30.5652C16.087 29.6772 15.3663 28.9565 14.4783 28.9565C13.5903 28.9565 12.8696 29.6772 12.8696 30.5652V37C12.8696 49.7618 22.8354 60.2151 35.3913 61.0484V70.7826H27.3478C26.4598 70.7826 25.7391 71.5033 25.7391 72.3913C25.7391 73.2793 26.4598 74 27.3478 74H46.6522C47.5402 74 48.2609 73.2793 48.2609 72.3913C48.2609 71.5033 47.5402 70.7826 46.6522 70.7826H38.6087V61.0484C51.1646 60.2151 61.1304 49.7618 61.1304 37V30.5652C61.1304 29.6772 60.4097 28.9565 59.5217 28.9565Z" fill="#FFB400"/>
</g>
<defs>
<clipPath id="clip0_1_331">
<rect width="74" height="74" fill="white"/>
</clipPath>
</defs>
</g>
<g id='ServiceGameDevSvg'>
<path d="M32.375 38.1562H41.625V40.4688H32.375V38.1562Z" fill="#FFB400"/>
<path d="M35.8438 34.6875H38.1562V43.9375H35.8438V34.6875Z" fill="#FFB400"/>
<path d="M65.9062 38.1562H68.2188V40.4688H65.9062V38.1562Z" fill="#FFB400"/>
<path d="M56.6562 38.1562H58.9688V40.4688H56.6562V38.1562Z" fill="#FFB400"/>
<path d="M61.2812 33.5312H63.5938V35.8438H61.2812V33.5312Z" fill="#FFB400"/>
<path d="M61.2812 42.7812H63.5938V45.0938H61.2812V42.7812Z" fill="#FFB400"/>
<path d="M10.6598 20.3789L5.45667 13.875L10.6598 7.37109L12.4653 8.81641L8.41843 13.875L12.4653 18.9336L10.6598 20.3789Z" fill="#FFB400"/>
<path d="M28.6528 20.3789L26.8473 18.9336L30.8953 13.875L26.8473 8.81641L28.6528 7.37109L33.8548 13.875L28.6528 20.3789Z" fill="#FFB400"/>
<path d="M14.7377 17.7375L22.8337 8.48975L24.5737 10.0124L16.4777 19.2607L14.7377 17.7375Z" fill="#FFB400"/>
<path d="M9.25 50.875H4.625V46.25H6.9375V48.5625H9.25V50.875Z" fill="#FFB400"/>
<path d="M70.5312 2.3125H3.46875C1.55315 2.3125 0 3.86565 0 5.78125V52.0312C0 53.9469 1.55315 55.5 3.46875 55.5H27.75V61.2812C27.75 63.1969 26.1969 64.75 24.2812 64.75H18.5V71.6875H55.5V64.75H49.7188C47.8031 64.75 46.25 63.1969 46.25 61.2812V55.5H70.5312C72.4469 55.5 74 53.9469 74 52.0312V5.78125C74 3.86565 72.4469 2.3125 70.5312 2.3125ZM53.1875 67.0625V69.375H20.8125V67.0625H53.1875ZM37 62.4861C38.9156 62.4861 40.4688 60.9329 40.4688 59.0173V55.5H43.9375V61.2812C43.942 62.5363 44.3587 63.7552 45.1237 64.75H28.8763C29.6413 63.7552 30.058 62.5363 30.0625 61.2812V55.5H33.5312V59.0173C33.5312 60.9329 35.0844 62.4861 37 62.4861ZM35.8438 59.0173V55.5H38.1562V59.0173C38.1562 59.6558 37.6385 60.1736 37 60.1736C36.3615 60.1736 35.8438 59.6558 35.8438 59.0173ZM71.6875 52.0312C71.6875 52.6698 71.1698 53.1875 70.5312 53.1875H3.46875C2.83022 53.1875 2.3125 52.6698 2.3125 52.0312V41.625H25.669C26.6265 46.3319 30.3956 49.9553 35.1369 50.726C39.8776 51.4972 44.6009 49.2547 47.0003 45.0938H52.4349C54.3725 48.4626 57.8774 50.6288 61.7572 50.8558C65.6369 51.0828 69.3699 49.3399 71.6875 46.2201V52.0312ZM62.4375 48.5625C58.923 48.571 55.7112 46.5758 54.1608 43.422L53.8407 42.7812H45.5968L45.2767 43.422C43.2487 47.5107 38.5419 49.5099 34.1918 48.1295C29.8412 46.7485 27.1482 42.4019 27.8494 37.8915C28.55 33.3816 32.436 30.0574 37 30.0625H62.4375C67.5463 30.0625 71.6875 34.2037 71.6875 39.3125C71.6875 44.4213 67.5463 48.5625 62.4375 48.5625ZM71.6875 32.4049C69.5128 29.4793 66.083 27.7534 62.4375 27.75H37C30.6169 27.7568 25.4443 32.9294 25.4375 39.3125H2.3125V5.78125C2.3125 5.14272 2.83022 4.625 3.46875 4.625H70.5312C71.1698 4.625 71.6875 5.14272 71.6875 5.78125V32.4049Z" fill="#FFB400"/>
<path d="M47.4062 38.1562H52.0312V40.4688H47.4062V38.1562Z" fill="#FFB400"/>
<path d="M34.6875 9.25H43.9375V11.5625H34.6875V9.25Z" fill="#FFB400"/>
<path d="M48.5625 9.25H67.0625V11.5625H48.5625V9.25Z" fill="#FFB400"/>
<path d="M50.875 13.875H67.0625V16.1875H50.875V13.875Z" fill="#FFB400"/>
<path d="M37 13.875H46.25V16.1875H37V13.875Z" fill="#FFB400"/>
<path d="M34.6875 18.5H57.8125V20.8125H34.6875V18.5Z" fill="#FFB400"/>
<path d="M62.4375 18.5H67.0625V20.8125H62.4375V18.5Z" fill="#FFB400"/>
<path d="M6.9375 23.125H18.5V25.4375H6.9375V23.125Z" fill="#FFB400"/>
<path d="M23.125 23.125H45.0938V25.4375H23.125V23.125Z" fill="#FFB400"/>
<path d="M48.5625 23.125H67.0625V25.4375H48.5625V23.125Z" fill="#FFB400"/>
<path d="M6.9375 27.75H25.4375V30.0625H6.9375V27.75Z" fill="#FFB400"/>
<path d="M6.9375 32.375H16.1875V34.6875H6.9375V32.375Z" fill="#FFB400"/>
<path d="M18.5 32.375H23.125V34.6875H18.5V32.375Z" fill="#FFB400"/>
</g>
<g id="ServicePhotographerSvg">
<path d="M52.3549 72.9677H71.7127L66.7434 58.0584C65.4438 54.1597 62.1275 51.2686 58.0879 50.5113L44.8065 48.0203V44.9469C47.9881 42.6509 50.2338 39.1535 50.8855 35.1201C53.8545 34.6182 56.1291 32.0454 56.1291 28.9355V20.129C56.1291 9.03039 47.0987 0 36 0C24.9014 0 15.871 9.03039 15.871 20.129V28.9355C15.871 32.0416 18.1343 34.6295 21.0983 35.1365C21.7525 39.1698 24.0107 42.671 27.1936 44.9657V48.0216L13.9109 50.5126C9.87255 51.2699 6.55503 54.1609 5.25545 58.0597L0.287354 72.9677H19.6452V70.4516H16.2245L18.3494 61.9496L15.9087 61.3407L13.6304 70.4516H3.77723L7.64326 58.8548C8.65348 55.8228 11.2338 53.5734 14.3752 52.9834L22.389 51.4813L24.4384 60.7004C23.0998 61.2816 22.1613 62.6126 22.1613 64.1613V74.2258C22.1613 76.3066 23.8547 78 25.9355 78H46.0646C48.1454 78 49.8388 76.3066 49.8388 74.2258V64.1613C49.8388 62.6126 48.9002 61.2816 47.5629 60.7004L49.6123 51.4813L57.6262 52.9834C60.7676 53.5734 63.3466 55.8228 64.3581 58.8548L68.2228 70.4516H58.3697L56.0913 61.3407L53.6507 61.9496L55.7756 70.4516H52.3549V72.9677ZM47.1377 51.017L45.4003 58.8346L44.531 55.3548H39.037L43.9686 50.4232L47.1377 51.017ZM43.1949 60.3871H28.8052L29.4342 57.871H42.5659L43.1949 60.3871ZM36 54.834L29.7097 48.5437V46.4226C31.627 47.3057 33.7544 47.8064 36 47.8064C38.2469 47.8064 40.3731 47.2995 42.2904 46.4163V48.5437L36 54.834ZM51.0968 32.4782V25.394C52.5574 25.9149 53.6129 27.2987 53.6129 28.9367C53.6129 30.5747 52.5574 31.9574 51.0968 32.4782ZM20.9033 32.4945C19.4389 31.975 18.3871 30.576 18.3871 28.9355C18.3871 27.295 19.4389 25.896 20.9033 25.3764V32.4945ZM18.3871 23.9359V20.129C18.3871 10.4168 26.2878 2.51613 36 2.51613C45.7123 2.51613 53.6129 10.4168 53.6129 20.129V23.9359C52.8682 23.3723 52.0077 22.9559 51.0566 22.7685C50.859 21.2827 49.5985 20.129 48.0598 20.129C47.261 20.129 46.4785 20.4536 45.8494 21.0826C43.7246 23.2075 41.0323 24.5625 38.1161 25.0028L38.1966 24.8417C38.4055 24.4215 38.5162 23.9523 38.5162 23.483V23.166C38.5162 21.4915 37.1537 20.129 35.4792 20.129C34.6803 20.129 33.8978 20.4536 33.3317 21.0185C30.6809 23.668 27.1646 25.1374 23.4194 25.1613V22.6452H22.1613C20.7397 22.6452 19.4414 23.1371 18.3871 23.9359ZM23.4194 32.7097V27.6774C27.8365 27.6535 31.9856 25.9224 35.1093 22.7986C35.4125 22.4942 36 22.742 36 23.166V23.483C36 23.5635 35.9812 23.6441 35.9447 23.717L33.9645 27.6774H36C40.3932 27.6774 44.5222 25.9677 47.69 22.7986C47.9944 22.4942 48.5807 22.742 48.5807 23.166V32.7097C48.5807 39.6466 42.937 45.2903 36 45.2903C29.0631 45.2903 23.4194 39.6466 23.4194 32.7097ZM28.0315 50.4232L32.9631 55.3548H27.4691L26.5998 58.8346L24.8624 51.017L28.0315 50.4232ZM25.9355 75.4839C25.2423 75.4839 24.6775 74.9203 24.6775 74.2258V64.1613C24.6775 63.4668 25.2423 62.9032 25.9355 62.9032H29.8494C28.2126 64.5035 27.1936 66.7303 27.1936 69.1936C27.1936 71.6568 28.2126 73.8836 29.8494 75.4839H25.9355ZM36 75.4839C32.5316 75.4839 29.7097 72.662 29.7097 69.1936C29.7097 65.7251 32.5316 62.9032 36 62.9032C39.4685 62.9032 42.2904 65.7251 42.2904 69.1936C42.2904 72.662 39.4685 75.4839 36 75.4839ZM47.3226 74.2258C47.3226 74.9203 46.7578 75.4839 46.0646 75.4839H42.1507C43.7875 73.8836 44.8065 71.6568 44.8065 69.1936C44.8065 66.7303 43.7875 64.5035 42.1507 62.9032H46.0646C46.7578 62.9032 47.3226 63.4668 47.3226 64.1613V74.2258Z" fill="#FFB400"/>
</g>
<g id='ServiceArrowRightSvg'>
<path d="M3.14333 4.00019L0.785828 1.64352L1.96416 0.464355L5.49999 4.00019L1.96416 7.53602L0.785828 6.35686L3.14333 4.00019Z" fill="#FFB400"/>
</g>
<g id="PriceActivedSvg">
<path d="M7.36888 10.172L16.8999 0.979004L18.3671 2.393L7.36888 13L0.770142 6.636L2.2363 5.222L7.36888 10.172Z" fill="#FFB400"/>
</g>
<g id='PriceDisabledSvg'>
<path d="M7.44261 5.58599L12.5752 0.635986L14.0413 2.04999L8.90876 6.99999L14.0413 11.95L12.5752 13.364L7.44261 8.41399L2.31003 13.364L0.843872 11.95L5.97645 6.99999L0.843872 2.04999L2.31003 0.635986L7.44261 5.58599Z" fill="#767676"/>
</g>
</svg>
